<svg width="360" height="240" viewBox="0 0 360 240" fill="none" xmlns="http://www.w3.org/2000/svg">
<path fill-rule="evenodd" clip-rule="evenodd" d="M191.989 34.9727C154.62 34.9987 117.051 35.3387 79.706 34.0317C66.646 33.5737 52.236 34.3577 41.422 42.3597C30.201 50.6627 26.517 64.5657 25.645 77.6477C23.547 109.137 24.768 140.776 25.09 172.309C25.271 190.177 31.095 208.514 52.037 211.631C72.5 214.677 102.89 213.66 123.513 212.936C184.694 210.788 236.398 215.14 297.522 212.114C302.077 211.885 306.417 211.397 310.805 210.096C318.806 207.77 326.413 203.035 330.33 195.854C333.858 189.385 334.052 181.74 334.053 174.415C334.06 140.589 337.959 107.685 333.171 73.9837C331.829 64.5357 328.784 54.9547 322.146 47.9417C304.073 28.8467 271.83 33.4277 248.258 34.1627C229.494 34.7487 210.74 34.9587 191.989 34.9727Z" fill="#00AFDA"/>
<path fill-rule="evenodd" clip-rule="evenodd" d="M276.358 194.813L264.572 165.528L248.32 171.612L244.102 198.907L258.526 213.096C259.044 213.102 259.558 213.11 260.076 213.115L276.358 194.813Z" fill="#FF8C98"/>
<path fill-rule="evenodd" clip-rule="evenodd" d="M253.432 213.035L247.68 186.128C247.68 186.128 266.805 176.203 269.783 169.503C269.783 169.503 256.138 138.081 248.569 131.089C241 124.097 207.636 117.61 207.636 117.61C207.636 117.61 194.849 114.668 173.758 112.682C173.758 112.682 144.728 127.818 135.051 134.269C125.374 140.721 117.682 196.053 118.178 200.27C118.675 204.489 132.314 213.238 158.862 212.245C158.862 212.245 127.667 211.586 159.091 212.245C190.515 212.905 222.769 213.198 253.432 213.035Z" fill="#006880"/>
<path fill-rule="evenodd" clip-rule="evenodd" d="M247.973 185.974C250.354 184.714 267.019 175.722 269.783 169.503C269.783 169.503 268.547 166.662 266.621 162.508C263.174 165.222 252.987 173.187 245.911 178.125C241.035 181.531 244.251 184.251 247.973 185.974Z" fill="#004656"/>
<path fill-rule="evenodd" clip-rule="evenodd" d="M173.51 111.194C173.51 111.194 164.949 111.566 165.819 123.724C166.646 135.317 176.86 150.77 188.692 154.424C189.308 154.614 189.937 154.683 190.302 154.151C192.326 151.202 199.115 142.234 200.556 138.287C200.556 138.287 210.484 147.625 214.544 149.394C214.991 149.589 215.505 149.499 215.839 149.143C217.752 147.11 223.931 138.998 216.808 124.965C208.495 108.589 173.51 111.194 173.51 111.194Z" fill="#004656"/>
<path fill-rule="evenodd" clip-rule="evenodd" d="M168.878 65.4571C168.878 65.4571 152.667 105.239 174.378 109.333C196.089 113.428 202.912 62.4381 196.213 60.5771C189.514 58.7161 168.878 65.4571 168.878 65.4571Z" fill="black"/>
<path fill-rule="evenodd" clip-rule="evenodd" d="M247.368 78.6074C247.368 78.6074 240.09 120.292 227.021 127.074C227.021 127.074 222.306 128.728 212.506 127.736C212.506 127.736 211.472 136.479 203.036 137.802C191.805 139.564 174.387 137.334 171.383 117.136C171.168 115.687 171.236 114.206 171.543 112.773C172.5 108.312 174.883 97.7314 177.066 92.3364C177.066 92.3364 169.457 95.7274 167.969 88.0364C166.506 80.4794 169.374 74.8024 174.585 73.3144C180.988 71.4844 183.351 75.4644 184.345 78.6074C185.337 81.7504 187.735 82.4954 189.555 80.6744C191.375 78.8554 195.51 69.4264 196.585 64.1334C197.66 58.8394 209.984 56.3594 229.751 59.7504C249.518 63.1404 248.004 75.3104 247.368 78.6074Z" fill="#FF8C98"/>
<path fill-rule="evenodd" clip-rule="evenodd" d="M248.567 48.4189C248.567 48.4189 249.187 26.4599 221.893 26.0879C221.893 26.0879 208.247 23.6739 190.133 38.1549C190.133 38.1549 167.673 36.3849 166.87 48.9149C166.066 61.4449 168.422 64.9189 168.422 64.9189L248.567 48.4189Z" fill="black"/>
<path fill-rule="evenodd" clip-rule="evenodd" d="M231.696 64.9189C231.696 64.9189 235.867 79.2129 243.481 75.5889C243.481 75.5889 249.684 83.4039 254.275 80.3029C258.865 77.2009 248.569 69.1379 248.569 69.1379L231.696 64.9189Z" fill="black"/>
<path fill-rule="evenodd" clip-rule="evenodd" d="M169.689 68.5156C176.981 66.9846 215.715 60.3626 249.188 71.2456C249.188 71.2456 256.797 56.3596 246.873 53.0506C237.145 49.8086 200.674 45.5356 170.359 60.6566C166.871 62.3966 167.004 64.2676 166.879 66.3586C166.79 67.8556 167.383 68.9986 169.689 68.5156Z" fill="#2950A6"/>
<path fill-rule="evenodd" clip-rule="evenodd" d="M198.156 65.2793C198.156 65.2793 223.582 63.2233 251.975 72.2393C251.975 72.2393 273.752 60.1633 271.353 50.9003C268.955 41.6363 252.33 39.0733 242.323 40.3133C232.315 41.5543 212.464 46.4923 198.156 65.2793Z" fill="#102041"/>
<path fill-rule="evenodd" clip-rule="evenodd" d="M285.52 154.564C285.148 154.44 264.82 139.356 264.82 139.356L289.384 92.7095L317.546 114.295L285.52 154.564Z" fill="#2950A6"/>
<path fill-rule="evenodd" clip-rule="evenodd" d="M301.865 125.598C301.865 132.283 296.446 137.702 289.761 137.702C283.076 137.702 277.657 132.283 277.657 125.598C277.657 118.912 283.076 113.494 289.761 113.494C296.446 113.494 301.865 118.912 301.865 125.598Z" fill="#102041"/>
<path fill-rule="evenodd" clip-rule="evenodd" d="M266.069 143.144L305.512 95.3145L329.457 119.782L288.888 161.563L266.069 143.144Z" fill="#FFB21C"/>
<path fill-rule="evenodd" clip-rule="evenodd" d="M308.865 130.598C308.865 137.283 303.446 142.702 296.761 142.702C290.076 142.702 284.657 137.283 284.657 130.598C284.657 123.912 290.076 118.494 296.761 118.494C303.446 118.494 308.865 123.912 308.865 130.598Z" fill="#EF8700"/>
<path fill-rule="evenodd" clip-rule="evenodd" d="M307.373 151.763C307.001 147.793 298.936 137.992 296.083 136.751C293.229 135.511 284.545 136.007 281.071 137.247C277.598 138.489 279.459 142.086 279.459 142.086L274.496 144.071C271.519 146.304 275.489 149.902 275.489 149.902L272.139 152.135C268.789 154.741 273.132 157.966 273.132 157.966C261.718 167.395 266.06 175.086 265.811 179.057C265.606 182.337 258.627 205.221 256.21 213.069C265.405 213.18 274.644 213.249 284.01 213.211C283.938 206.405 283.843 190.754 284.421 186.996C285.166 182.159 292.981 175.458 300.674 168.511C308.365 161.564 306.38 159.33 306.628 157.222C306.877 155.113 307.745 155.733 307.373 151.763Z" fill="#F8A9AF"/>
<path fill-rule="evenodd" clip-rule="evenodd" d="M257.607 144.475C255.912 145.31 251.689 147.875 252.67 152.392C253.677 157.023 260.059 156.067 262.907 154.722C261.261 151.373 259.447 147.823 257.607 144.475Z" fill="#004656"/>
<path fill-rule="evenodd" clip-rule="evenodd" d="M175.047 80.6261C175.325 80.8701 175.579 81.1321 175.822 81.4111C175.959 81.5681 176.186 81.9041 176.349 82.1891C176.682 82.7721 176.957 83.4051 176.973 84.0431C176.978 84.2711 176.93 84.5661 176.856 84.7481C176.901 84.6361 176.784 84.8861 176.773 84.9081C176.737 84.9731 176.699 85.0351 176.66 85.0971C176.663 85.0921 176.495 85.3291 176.557 85.2511C176.613 85.1781 176.48 85.3361 176.467 85.3511C176.236 85.6071 176.006 85.8011 175.843 85.9131C175.546 86.1181 175.231 86.2891 174.903 86.4401C174.353 86.6951 174.215 87.4911 174.5 87.9801C174.831 88.5461 175.485 88.6391 176.039 88.3831C177.713 87.6101 179.179 86.1121 179.223 84.1761C179.267 82.2501 178.044 80.2661 176.638 79.0351C176.181 78.6361 175.496 78.5861 175.047 79.0351C174.639 79.4431 174.587 80.2251 175.047 80.6261Z" fill="black"/>
<path fill-rule="evenodd" clip-rule="evenodd" d="M194.711 123.357C198.954 125.284 203.242 127.176 207.671 128.638C210.645 129.62 213.733 130.401 216.881 130.42C222.525 130.456 228.359 129.536 232.909 125.951C236.82 122.869 238.462 118.063 240.129 113.548C242.327 107.594 244.192 101.511 245.897 95.3994C247.601 89.2864 249.257 83.0854 250.08 76.7814C250.248 75.4934 248.857 74.3804 247.68 74.3804C246.243 74.3804 245.448 75.4894 245.279 76.7814C245.347 76.2694 245.283 76.7524 245.25 76.9734C245.215 77.2044 245.18 77.4334 245.143 77.6634C245.05 78.2354 244.948 78.8054 244.841 79.3754C244.611 80.5954 244.356 81.8114 244.085 83.0244C243.46 85.8284 242.758 88.6144 242.016 91.3894C240.427 97.3224 238.662 103.214 236.659 109.02C235.836 111.406 234.976 113.782 234.001 116.11C234.186 115.67 233.866 116.421 233.827 116.51C233.733 116.722 233.64 116.933 233.544 117.144C233.357 117.553 233.165 117.961 232.962 118.363C232.651 118.979 232.325 119.6 231.922 120.163C228.77 124.555 222.91 125.563 218.111 125.622C210.936 125.708 203.738 122.211 197.134 119.212C195.954 118.676 194.552 118.875 193.851 120.073C193.248 121.103 193.525 122.818 194.711 123.357Z" fill="black"/>
<path fill-rule="evenodd" clip-rule="evenodd" d="M278.355 160.193C277.818 160.527 277.269 160.824 276.67 161.033C276.26 161.177 275.368 161.588 274.959 161.352C274.119 160.868 274.896 159.3 275.234 158.779C276.476 156.856 278.801 155.043 280.867 154.092C282.031 153.556 283.202 154.014 284.315 154.483C285.439 154.957 286.538 155.574 287.492 156.338C289.4 157.867 290.826 160.059 291.055 162.53C291.188 163.96 293.439 163.973 293.305 162.53C293.053 159.821 291.832 157.347 289.877 155.453C288.059 153.689 285.498 152.174 282.989 151.687C280.217 151.15 277.665 153.237 275.711 154.965C273.951 156.523 271.906 158.745 272.471 161.309C273.256 164.864 277.344 163.473 279.491 162.135C280.716 161.372 279.588 159.424 278.355 160.193Z" fill="black"/>
<path fill-rule="evenodd" clip-rule="evenodd" d="M277.964 159.899C278.405 161.546 279.104 163.136 280.026 164.572C280.343 165.067 281.039 165.314 281.565 164.975C282.059 164.657 282.309 163.965 281.968 163.436C281.539 162.769 281.16 162.072 280.837 161.347C280.807 161.279 280.709 160.954 280.794 161.252C280.774 161.178 280.733 161.102 280.704 161.032C280.626 160.835 280.553 160.637 280.483 160.437C280.352 160.063 280.236 159.684 280.133 159.301C279.981 158.733 279.325 158.33 278.749 158.515C278.166 158.705 277.8 159.291 277.964 159.899Z" fill="black"/>
<path fill-rule="evenodd" clip-rule="evenodd" d="M279.92 162.109C275.716 165.061 274.116 169.986 272.761 174.705C272.36 176.099 274.531 176.694 274.931 175.303C276.1 171.232 277.399 166.62 281.056 164.052C281.552 163.704 281.783 163.068 281.459 162.512C281.172 162.021 280.419 161.758 279.92 162.109Z" fill="black"/>
<path fill-rule="evenodd" clip-rule="evenodd" d="M274.076 156.164C273.205 156.011 271.563 155.814 271.572 154.63C271.58 153.439 272.954 152.752 273.866 152.313C276.389 151.102 279.033 150.104 281.677 149.192C282.9 148.77 284.136 148.33 285.389 148.003C286.906 147.606 287.896 148.181 289.196 148.897C291.236 150.022 293.289 151.252 294.582 153.251C295.365 154.463 297.313 153.337 296.524 152.115C294.812 149.468 292.047 147.789 289.288 146.389C287.611 145.538 286.191 145.423 284.389 145.951C282.535 146.496 280.704 147.131 278.894 147.808C277.137 148.465 275.399 149.177 273.684 149.937C272.281 150.56 270.793 151.243 269.953 152.601C269.228 153.771 269.078 155.271 269.849 156.46C270.638 157.677 272.136 158.097 273.478 158.334C274.894 158.584 275.502 156.416 274.076 156.164Z" fill="black"/>
<path fill-rule="evenodd" clip-rule="evenodd" d="M276.979 149.022C276.324 148.242 275.228 147.001 275.621 145.883C275.923 145.023 277.019 144.716 277.809 144.528C280.179 143.962 282.724 143.86 285.14 143.565C286.412 143.41 287.683 143.253 288.954 143.099C290.156 142.954 291.203 142.798 292.245 143.537C294.402 145.068 296.355 147.007 298.371 148.721C299.468 149.655 301.067 148.07 299.962 147.13C298.559 145.937 297.156 144.745 295.753 143.551C294.686 142.644 293.616 141.527 292.292 141.004C290.784 140.408 289.075 140.834 287.524 141.024C285.776 141.238 284.028 141.451 282.28 141.665C279.843 141.962 276.551 141.866 274.577 143.588C272.163 145.696 273.719 148.626 275.388 150.613C276.32 151.723 277.905 150.125 276.979 149.022Z" fill="black"/>
<path fill-rule="evenodd" clip-rule="evenodd" d="M222.549 89.4443C222.473 88.0033 220.222 87.9953 220.299 89.4443C220.451 92.3393 220.258 95.2883 219.714 98.1343C219.522 99.1433 219.374 101.028 218.338 101.559C217.273 102.105 216.616 99.8073 216.528 99.1043C216.463 98.6033 216.221 98.1623 215.701 98.0183C215.248 97.8943 214.645 98.0923 214.431 98.5363C213.977 99.4733 213.019 100.757 211.811 100.663C211.451 100.634 211.099 100.265 210.957 99.9433C210.754 99.4833 210.98 98.9523 211.147 98.5143C211.363 97.9473 210.906 97.2813 210.361 97.1313C209.728 96.9573 209.195 97.3463 208.977 97.9173C208.6 98.9063 208.486 99.9653 208.949 100.946C209.359 101.81 210.211 102.598 211.147 102.83C212.548 103.178 213.924 102.538 214.97 101.557C215.455 102.609 216.196 103.522 217.297 103.827C219.36 104.397 220.875 102.511 221.406 100.771C221.961 98.9553 222.207 97.0143 222.393 95.1303C222.579 93.2423 222.649 91.3393 222.549 89.4443Z" fill="black"/>
<path fill-rule="evenodd" clip-rule="evenodd" d="M200.028 99.0781C199.967 99.4711 199.878 99.8551 199.752 100.232C199.722 100.322 199.688 100.41 199.657 100.499C199.594 100.676 199.665 100.495 199.619 100.596C199.535 100.785 199.441 100.972 199.341 101.152C199.249 101.317 199.15 101.478 199.045 101.635C198.992 101.714 198.937 101.79 198.882 101.867C198.837 101.929 198.838 101.928 198.887 101.864C198.863 101.893 198.84 101.923 198.816 101.952C198.559 102.256 198.288 102.542 197.986 102.8C197.544 103.178 196.756 103.61 196.178 103.801C195.329 104.082 194.801 104.145 193.91 104.098C193.321 104.067 192.758 104.638 192.785 105.223C192.813 105.859 193.279 106.314 193.91 106.348C197.891 106.557 201.583 103.635 202.198 99.6771C202.288 99.0981 202.05 98.4381 201.412 98.2931C200.874 98.1701 200.125 98.4561 200.028 99.0781Z" fill="black"/>
<path fill-rule="evenodd" clip-rule="evenodd" d="M198.047 104.753C204.537 109.987 212.659 114.144 221.194 111.96C222.597 111.602 222.002 109.431 220.597 109.79C212.904 111.758 205.477 107.871 199.638 103.162C198.521 102.261 196.919 103.844 198.047 104.753Z" fill="black"/>
<path fill-rule="evenodd" clip-rule="evenodd" d="M203.802 115.347C205.647 118.08 209.24 119.424 212.413 118.412C212.991 118.228 213.365 117.631 213.198 117.029C213.042 116.459 212.396 116.058 211.815 116.243C211.503 116.342 211.189 116.412 210.866 116.469C210.684 116.5 211.131 116.449 210.81 116.473C210.741 116.478 210.674 116.484 210.606 116.489C210.435 116.498 210.264 116.502 210.093 116.498C209.94 116.495 209.785 116.487 209.632 116.472C209.539 116.464 209.409 116.447 209.574 116.47C209.489 116.458 209.406 116.444 209.322 116.428C209.001 116.368 208.685 116.286 208.376 116.182C208.311 116.159 208.246 116.137 208.182 116.113C208.188 116.115 207.909 116.003 208.031 116.055C208.151 116.106 207.877 115.982 207.883 115.985C207.822 115.955 207.76 115.925 207.698 115.893C207.41 115.743 207.132 115.574 206.868 115.383C206.806 115.338 206.688 115.241 206.811 115.341C206.744 115.287 206.679 115.233 206.615 115.176C206.499 115.075 206.387 114.969 206.28 114.86C206.159 114.738 206.047 114.609 205.937 114.479C205.881 114.414 205.855 114.371 205.922 114.464C205.862 114.381 205.803 114.297 205.745 114.211C205.406 113.708 204.754 113.487 204.206 113.808C203.707 114.1 203.461 114.841 203.802 115.347Z" fill="black"/>
<path fill-rule="evenodd" clip-rule="evenodd" d="M202.712 71.6768C203.803 71.5468 204.901 71.5018 205.999 71.5678C206.912 71.6208 207.549 71.7188 208.503 71.9808C210.166 72.4358 211.512 73.1768 212.632 74.5328C213.149 75.1578 214.219 75.0678 214.753 74.5328C215.371 73.9138 215.271 73.0378 214.753 72.4108C211.909 68.9688 206.915 68.1768 202.712 68.6768C201.908 68.7718 201.212 69.2968 201.212 70.1768C201.212 70.9128 201.902 71.7728 202.712 71.6768Z" fill="black"/>
<path fill-rule="evenodd" clip-rule="evenodd" d="M228.873 76.7021C229.701 76.5221 230.642 76.5531 231.538 76.5981C232.397 76.6401 233.265 76.6631 234.105 76.8511C235.618 77.1901 236.891 77.9171 237.965 79.0241C238.529 79.6061 239.519 79.5911 240.087 79.0241C240.668 78.4421 240.652 77.4861 240.087 76.9031C238.69 75.4641 236.865 74.3981 234.903 73.9591C233.802 73.7121 232.663 73.6541 231.538 73.5981C230.373 73.5391 229.221 73.5601 228.075 73.8091C227.284 73.9811 226.821 74.9041 227.028 75.6541C227.253 76.4731 228.079 76.8751 228.873 76.7021Z" fill="black"/>
<path fill-rule="evenodd" clip-rule="evenodd" d="M197.821 79.666C197.452 78.69 197.954 77.554 198.904 77.122C200.056 76.599 202.27 76.311 206.515 77.269C214.954 79.173 213.146 81.825 213.146 81.825C213.146 81.825 212.141 83.969 204.855 82.521C199.592 81.477 198.203 80.675 197.821 79.666Z" fill="white"/>
<path fill-rule="evenodd" clip-rule="evenodd" d="M223.879 85.4092C223.796 84.6492 224.234 83.9182 224.902 83.5462C226 82.9322 228.283 82.3402 232.627 83.5762C239.55 85.5462 239.333 86.4512 239.091 87.4382C238.848 88.4262 236.62 89.8172 230.291 88.4352C225.368 87.3602 224.007 86.5902 223.879 85.4092Z" fill="white"/>
<path fill-rule="evenodd" clip-rule="evenodd" d="M203.439 82.2119C199.853 82.2119 199.847 76.6389 203.439 76.6389C207.026 76.6389 207.032 82.2119 203.439 82.2119Z" fill="black"/>
<path fill-rule="evenodd" clip-rule="evenodd" d="M229.042 87.9883C225.737 87.9883 225.731 82.8513 229.042 82.8513C232.348 82.8513 232.353 87.9883 229.042 87.9883Z" fill="black"/>
<path fill-rule="evenodd" clip-rule="evenodd" d="M194.128 123.042L209.602 134.197C209.602 134.197 211.834 131.656 212.113 128.944C212.394 126.232 194.128 123.042 194.128 123.042Z" fill="black"/>
<path fill-rule="evenodd" clip-rule="evenodd" d="M63.871 224.333L144.086 217.45C151.934 216.776 157.975 209.134 157.77 200.135L154.193 42.1912C153.978 32.6692 146.885 25.3352 138.58 26.0472L44.615 34.1112C36.195 34.8332 29.983 43.5212 31.041 53.0942L48.369 209.857C49.341 218.652 56.136 224.997 63.871 224.333Z" fill="#FFC41C"/>
<path fill-rule="evenodd" clip-rule="evenodd" d="M100.934 43.8893L70.1579 46.1233C67.9969 46.2783 66.5719 45.0763 66.4689 43.4543C66.3649 41.8333 67.6059 40.4413 69.7669 40.2853L100.336 38.0763C102.497 37.9203 103.993 39.1213 104.096 40.7433C104.2 42.3653 103.095 43.7333 100.934 43.8893Z" fill="#FC9500"/>
<path fill-rule="evenodd" clip-rule="evenodd" d="M114.511 42.8942C112.832 43.0272 111.391 41.8212 111.294 40.1992C111.198 38.5772 112.48 37.1542 114.16 37.0202C115.839 36.8872 117.28 38.0932 117.377 39.7152C117.473 41.3372 116.191 42.7602 114.511 42.8942Z" fill="#FC9500"/>
<path fill-rule="evenodd" clip-rule="evenodd" d="M144.095 217.456L73.9377 223.474L92.9687 204.902L136.152 201.192C141.231 200.759 145.157 195.802 145.028 189.962L144.209 154.897L156.477 142.925L157.766 200.123C157.983 209.126 151.927 216.778 144.095 217.456Z" fill="#FFC41C"/>
<path fill-rule="evenodd" clip-rule="evenodd" d="M54.764 52.9128L132.522 46.8228C137.901 46.3608 143.879 50.4628 144.022 56.6308L147.599 187.614C147.734 193.447 145.285 200.807 136.152 201.197L69.335 206.931C64.312 207.362 57.846 203.555 57.229 197.842L43.633 68.3198C42.965 62.1268 46.985 53.7018 54.764 52.9128Z" fill="#2D2D2D"/>
<path fill-rule="evenodd" clip-rule="evenodd" d="M96.9203 98.9288C114.196 97.4748 129.38 110.302 130.834 127.578C132.288 144.854 119.462 160.038 102.185 161.492C84.9093 162.946 69.7253 150.119 68.2713 132.843C66.8173 115.567 79.6443 100.383 96.9203 98.9288Z" fill="black"/>
<path fill-rule="evenodd" clip-rule="evenodd" d="M96.2006 88.7433C113.477 87.2893 128.661 100.116 130.115 117.392C131.569 134.668 118.743 149.852 101.466 151.306C84.1896 152.76 69.0056 139.933 67.5516 122.657C66.0976 105.381 78.9246 90.1973 96.2006 88.7433Z" fill="#2950A6"/>
<path d="M86.0771 111.865C85.982 110.778 86.7901 109.82 87.882 109.724L91.5988 109.399L93.3652 129.588L107.6 128.343L107.214 123.935L97.5663 124.779L96.1856 108.998L95.6278 102.622L98.7162 108.776L109.55 107.828C110.642 107.733 111.604 108.536 111.7 109.623L113.586 131.19C113.682 132.277 112.873 133.235 111.782 133.331L90.1132 135.227C89.0213 135.322 88.0591 134.519 87.964 133.432L86.0771 111.865Z" fill="white"/>
<path fill-rule="evenodd" clip-rule="evenodd" d="M53.2832 94.6226C53.2522 96.2496 53.2612 97.8776 53.3102 99.5046C53.3342 100.289 53.9832 101.042 54.8102 101.005C55.6022 100.97 56.3352 100.345 56.3102 99.5046C56.2612 97.8776 56.2522 96.2496 56.2832 94.6226C56.2982 93.8376 55.5822 93.0866 54.7832 93.1226C53.9572 93.1596 53.2992 93.7816 53.2832 94.6226Z" fill="white"/>
<path fill-rule="evenodd" clip-rule="evenodd" d="M59.0395 103.971C60.7025 103.902 62.3645 104.04 64.0275 103.971C64.8105 103.938 65.5645 103.304 65.5275 102.471C65.4925 101.686 64.8675 100.936 64.0275 100.971C62.3645 101.04 60.7025 100.902 59.0395 100.971C58.2565 101.004 57.5015 101.638 57.5395 102.471C57.5745 103.256 58.1995 104.006 59.0395 103.971Z" fill="white"/>
<path fill-rule="evenodd" clip-rule="evenodd" d="M46.0297 104.382C47.4377 104.456 48.8567 104.418 50.2657 104.382C51.0497 104.361 51.8027 103.706 51.7657 102.882C51.7307 102.087 51.1067 101.361 50.2657 101.382C48.8567 101.418 47.4377 101.456 46.0297 101.382C45.2447 101.34 44.4947 102.101 44.5297 102.882C44.5677 103.73 45.1897 104.338 46.0297 104.382Z" fill="white"/>
<path fill-rule="evenodd" clip-rule="evenodd" d="M53.2871 106.254V112.14C53.2871 112.925 53.9771 113.676 54.7871 113.64C55.6001 113.604 56.2871 112.981 56.2871 112.14V106.254C56.2871 105.469 55.5971 104.718 54.7871 104.754C53.9741 104.791 53.2871 105.413 53.2871 106.254Z" fill="white"/>
<path fill-rule="evenodd" clip-rule="evenodd" d="M160.255 175.982C160.224 177.609 160.233 179.237 160.282 180.864C160.306 181.648 160.955 182.401 161.782 182.364C162.575 182.329 163.308 181.704 163.282 180.864C163.233 179.237 163.224 177.609 163.255 175.982C163.27 175.197 162.554 174.446 161.755 174.482C160.93 174.519 160.271 175.141 160.255 175.982Z" fill="white"/>
<path fill-rule="evenodd" clip-rule="evenodd" d="M166.012 185.331C167.675 185.262 169.337 185.4 171 185.331C171.783 185.298 172.537 184.664 172.5 183.831C172.465 183.046 171.84 182.296 171 182.331C169.337 182.4 167.675 182.262 166.012 182.331C165.229 182.363 164.474 182.998 164.512 183.831C164.547 184.616 165.172 185.366 166.012 185.331Z" fill="white"/>
<path fill-rule="evenodd" clip-rule="evenodd" d="M153.002 185.741C154.41 185.815 155.829 185.777 157.238 185.741C158.022 185.721 158.775 185.066 158.738 184.241C158.703 183.446 158.079 182.72 157.238 182.741C155.829 182.777 154.41 182.815 153.002 182.741C152.217 182.699 151.467 183.461 151.502 184.241C151.54 185.089 152.161 185.697 153.002 185.741Z" fill="white"/>
<path fill-rule="evenodd" clip-rule="evenodd" d="M160.259 187.614V193.5C160.259 194.284 160.949 195.036 161.759 195C162.572 194.964 163.259 194.341 163.259 193.5V187.614C163.259 186.829 162.569 186.077 161.759 186.114C160.946 186.15 160.259 186.773 160.259 187.614Z" fill="white"/>
<path fill-rule="evenodd" clip-rule="evenodd" d="M65.3916 178.667C65.8747 174.536 62.9588 169.64 58.3612 170.128C56.6899 170.307 55.045 170.851 53.5512 171.665C53.9919 170.566 54.4443 169.473 54.9518 168.403C56.0321 166.124 57.4152 164.079 58.9201 162.062C61.1566 159.064 64.0071 155.93 64.4644 152.061C64.7902 149.303 62.9957 146.645 60.6436 145.316C57.1869 143.363 53.6745 144.95 50.6625 146.95C47.1229 149.3 44.553 152.57 42.1856 156.045C42.1223 156.115 42.0631 156.194 42.0144 156.293C41.9538 156.382 41.9149 156.47 41.8856 156.557C39.9248 160.576 38.0941 164.833 37.9897 169.372C37.9082 172.936 38.9663 176.595 41.3719 179.261C39.0839 182.07 37.5595 185.649 37.9465 189.318C38.2869 192.542 40.0466 195.66 42.8768 197.288C41.5891 200.288 40.632 203.699 42.7 206.59C44.5892 209.231 47.8754 210.447 51.0488 210.039C57.3867 209.225 64.5264 202.436 63.0312 195.604C62.4423 192.913 60.3547 190.462 57.7055 189.734C59.067 188.121 60.5378 186.596 61.8826 184.973C63.4022 183.137 65.1048 181.115 65.3916 178.667Z" fill="#FF8C98"/>
<path fill-rule="evenodd" clip-rule="evenodd" d="M53.258 173.748C54.994 169.481 57.2299 165.23 60.2467 161.724C61.1189 160.709 59.648 159.226 58.7703 160.247C55.5008 164.047 53.1251 168.57 51.2443 173.193C51.032 173.715 51.4754 174.34 51.9738 174.477C52.571 174.641 53.0443 174.272 53.258 173.748Z" fill="black"/>
<path fill-rule="evenodd" clip-rule="evenodd" d="M49.869 195.668C51.8278 193.479 54.585 191.13 57.709 191.273C58.861 191.326 59.9163 191.814 60.7202 192.635C61.0175 192.938 61.2667 193.265 61.4797 193.633C61.527 193.715 61.5709 193.799 61.6154 193.882C61.6279 193.904 61.7421 194.151 61.6885 194.026C61.6662 193.973 61.763 194.245 61.7825 194.322C62.1027 195.627 64.1171 195.074 63.7955 193.767C63.183 191.272 60.5943 189.501 58.1656 189.223C54.3358 188.784 50.7997 191.502 48.3926 194.191C47.4982 195.19 48.9704 196.672 49.869 195.668Z" fill="black"/>
<path fill-rule="evenodd" clip-rule="evenodd" d="M50.3697 177.035C51.9776 174.746 54.3283 172.835 56.9873 171.912C58.3753 171.429 59.8468 171.25 61.2167 171.884C62.2469 172.361 63.5026 173.187 63.8848 174.318C64.3129 175.584 66.3308 175.04 65.8985 173.762C65.3633 172.177 64.0122 170.995 62.5657 170.229C60.8861 169.338 59.0658 169.188 57.2302 169.656C53.7018 170.557 50.6293 173.044 48.5661 175.981C47.7921 177.083 49.6019 178.128 50.3697 177.035Z" fill="black"/>
<path fill-rule="evenodd" clip-rule="evenodd" d="M114.364 66.3199C114.343 67.3869 114.349 68.4549 114.382 69.5229C114.394 69.9149 114.541 70.3029 114.821 70.5829C115.081 70.8429 115.508 71.0389 115.882 71.0229C116.27 71.0059 116.672 70.8779 116.942 70.5829C117.207 70.2949 117.394 69.9239 117.382 69.5229C117.349 68.4549 117.343 67.3869 117.364 66.3199C117.371 65.9399 117.192 65.5259 116.925 65.2589C116.664 64.9989 116.238 64.8029 115.864 64.8199C115.038 64.8569 114.38 65.4789 114.364 66.3199Z" fill="white"/>
<path fill-rule="evenodd" clip-rule="evenodd" d="M119.656 74.9688C120.747 74.9238 121.837 75.0148 122.928 74.9688C123.323 74.9528 123.705 74.8128 123.989 74.5298C124.249 74.2698 124.445 73.8428 124.428 73.4688C124.411 73.0808 124.283 72.6788 123.989 72.4078C123.702 72.1458 123.328 71.9518 122.928 71.9688C121.837 72.0148 120.747 71.9238 119.656 71.9688C119.261 71.9858 118.879 72.1248 118.595 72.4078C118.335 72.6688 118.139 73.0948 118.156 73.4688C118.173 73.8568 118.301 74.2598 118.595 74.5298C118.882 74.7928 119.256 74.9858 119.656 74.9688Z" fill="white"/>
<path fill-rule="evenodd" clip-rule="evenodd" d="M108.121 75.2384C109.045 75.2864 109.976 75.2614 110.9 75.2384C111.291 75.2284 111.682 75.0774 111.961 74.7994C112.221 74.5384 112.417 74.1124 112.4 73.7384C112.383 73.3504 112.255 72.9474 111.961 72.6774C111.672 72.4124 111.303 72.2284 110.9 72.2384C109.976 72.2614 109.045 72.2864 108.121 72.2384C107.749 72.2184 107.319 72.4194 107.06 72.6774C106.8 72.9374 106.604 73.3644 106.621 73.7384C106.639 74.1264 106.766 74.5284 107.06 74.7994C107.363 75.0764 107.708 75.2164 108.121 75.2384Z" fill="white"/>
<path fill-rule="evenodd" clip-rule="evenodd" d="M114.366 76.9508V80.8118C114.366 81.5968 115.056 82.3478 115.866 82.3118C116.679 82.2758 117.366 81.6528 117.366 80.8118V76.9508C117.366 76.1658 116.676 75.4138 115.866 75.4508C115.053 75.4868 114.366 76.1098 114.366 76.9508Z" fill="white"/>
<path fill-rule="evenodd" clip-rule="evenodd" d="M95.9715 170.177C95.9615 170.736 95.9645 171.294 95.9815 171.852C95.9925 172.244 96.1405 172.633 96.4205 172.913C96.5565 173.059 96.7175 173.163 96.9035 173.223C97.0815 173.317 97.2745 173.36 97.4815 173.352C97.8685 173.335 98.2715 173.208 98.5415 172.913C98.8065 172.625 98.9935 172.254 98.9815 171.852C98.9645 171.294 98.9615 170.736 98.9715 170.177C98.9795 169.97 98.9365 169.778 98.8425 169.599C98.7825 169.413 98.6785 169.252 98.5325 169.116C98.3965 168.97 98.2355 168.866 98.0495 168.806C97.8705 168.712 97.6785 168.669 97.4715 168.677C97.0835 168.695 96.6815 168.822 96.4105 169.116C96.1385 169.413 95.9795 169.768 95.9715 170.177Z" fill="white"/>
<path fill-rule="evenodd" clip-rule="evenodd" d="M100.456 176.417C101.027 176.393 101.597 176.44 102.168 176.417C102.562 176.4 102.945 176.261 103.228 175.978C103.374 175.842 103.478 175.681 103.539 175.495C103.632 175.316 103.676 175.124 103.668 174.917C103.65 174.529 103.523 174.126 103.228 173.856C102.942 173.593 102.568 173.4 102.168 173.417C101.597 173.44 101.027 173.393 100.456 173.417C100.061 173.433 99.6785 173.573 99.3945 173.856C99.2485 173.992 99.1455 174.153 99.0845 174.339C98.9905 174.518 98.9475 174.71 98.9555 174.917C98.9735 175.305 99.1005 175.707 99.3945 175.978C99.6815 176.24 100.056 176.434 100.456 176.417Z" fill="white"/>
<path fill-rule="evenodd" clip-rule="evenodd" d="M92.4218 176.557C92.9048 176.582 93.3918 176.569 93.8758 176.557C94.0828 176.565 94.2748 176.522 94.4538 176.428C94.6398 176.368 94.8008 176.264 94.9368 176.118C95.0828 175.982 95.1858 175.821 95.2468 175.635C95.3398 175.456 95.3838 175.264 95.3758 175.057C95.3578 174.924 95.3398 174.791 95.3218 174.658C95.2508 174.404 95.1228 174.183 94.9368 173.996C94.8358 173.918 94.7338 173.84 94.6328 173.762C94.3988 173.626 94.1468 173.558 93.8758 173.557C93.3918 173.569 92.9048 173.582 92.4218 173.557C92.2158 173.549 92.0228 173.592 91.8438 173.686C91.6578 173.747 91.4968 173.85 91.3608 173.996C91.2148 174.132 91.1118 174.293 91.0508 174.479C90.9578 174.658 90.9148 174.85 90.9218 175.057C90.9398 175.19 90.9578 175.323 90.9758 175.456C91.0468 175.71 91.1748 175.931 91.3608 176.118C91.4628 176.196 91.5638 176.274 91.6648 176.352C91.8988 176.488 92.1508 176.556 92.4218 176.557Z" fill="white"/>
<path fill-rule="evenodd" clip-rule="evenodd" d="M95.9731 177.737V179.757C95.9731 180.142 96.1401 180.546 96.4121 180.818C96.5481 180.964 96.7091 181.068 96.8951 181.128C97.0741 181.222 97.2671 181.265 97.4731 181.257C97.8611 181.239 98.2641 181.112 98.5341 180.818C98.8031 180.524 98.9731 180.163 98.9731 179.757V177.737C98.9731 177.353 98.8061 176.948 98.5341 176.676C98.3981 176.53 98.2371 176.427 98.0511 176.366C97.8721 176.273 97.6801 176.229 97.4731 176.237C97.0851 176.255 96.6831 176.382 96.4121 176.676C96.1431 176.97 95.9731 177.331 95.9731 177.737Z" fill="white"/>
</svg>
